<svg viewBox="190.738 79.514 120.075 32.761" xmlns="http://www.w3.org/2000/svg">
  <path d="M 206.98 87.307 C 206.912 87.217 206.674 87.047 206.266 86.797 C 205.858 86.547 205.348 86.287 204.736 86.015 C 204.124 85.743 203.455 85.505 202.73 85.301 C 202.022 85.1 201.29 84.997 200.554 84.995 C 198.559 84.995 197.562 85.664 197.562 87.001 C 197.562 87.409 197.669 87.749 197.885 88.021 C 198.1 88.293 198.417 88.537 198.837 88.752 C 199.256 88.967 199.783 89.166 200.417 89.347 L 201.823 89.74 L 202.628 89.959 C 203.784 90.276 204.826 90.622 205.756 90.996 C 206.685 91.37 207.473 91.835 208.119 92.39 C 208.763 92.943 209.274 93.635 209.615 94.413 C 209.965 95.206 210.142 96.158 210.142 97.269 C 210.142 98.629 209.887 99.779 209.377 100.72 C 208.867 101.66 208.192 102.42 207.354 102.998 C 206.514 103.576 205.552 103.995 204.464 104.256 C 203.376 104.516 202.254 104.647 201.098 104.647 C 199.256 104.637 197.425 104.368 195.658 103.848 C 194.774 103.588 193.918 103.276 193.091 102.913 C 192.289 102.565 191.52 102.144 190.795 101.655 L 193.243 96.793 C 193.333 96.906 193.628 97.122 194.127 97.439 C 194.625 97.756 195.243 98.074 195.98 98.391 C 196.716 98.708 197.538 98.991 198.445 99.241 C 199.351 99.491 200.269 99.615 201.199 99.615 C 203.171 99.615 204.157 99.015 204.157 97.813 C 204.157 97.36 204.009 96.986 203.715 96.691 C 203.42 96.396 203.012 96.13 202.491 95.892 C 202.002 95.673 201.499 95.486 200.987 95.332 L 199.285 94.837 L 198.309 94.549 C 197.198 94.209 196.235 93.841 195.419 93.444 C 194.603 93.047 193.929 92.588 193.396 92.067 C 192.872 91.56 192.466 90.945 192.206 90.265 C 191.945 89.585 191.815 88.792 191.815 87.885 C 191.815 86.615 192.053 85.494 192.529 84.519 C 192.988 83.566 193.649 82.725 194.467 82.054 C 195.307 81.372 196.271 80.859 197.306 80.541 C 198.382 80.201 199.521 80.031 200.723 80.031 C 201.561 80.031 202.389 80.111 203.205 80.269 C 204.021 80.428 204.803 80.632 205.551 80.881 C 206.299 81.131 206.996 81.414 207.641 81.731 C 208.288 82.048 208.883 82.366 209.427 82.683 L 206.979 87.307 L 206.98 87.307 Z M 230.404 104.375 L 224.964 104.375 L 224.964 94.345 C 224.964 93.189 224.737 92.339 224.284 91.795 C 223.83 91.251 223.207 90.979 222.414 90.979 C 222.096 90.979 221.751 91.053 221.377 91.2 C 220.983 91.359 220.616 91.577 220.289 91.846 C 219.926 92.14 219.601 92.477 219.319 92.849 C 219.022 93.239 218.792 93.676 218.639 94.141 L 218.639 104.375 L 213.199 104.375 L 213.199 79.555 L 218.639 79.555 L 218.639 89.517 C 219.269 88.477 220.168 87.626 221.241 87.052 C 222.317 86.474 223.501 86.185 224.794 86.185 C 225.995 86.185 226.964 86.395 227.701 86.814 C 228.437 87.234 229.004 87.766 229.401 88.412 C 229.797 89.058 230.064 89.783 230.2 90.588 C 230.336 91.393 230.404 92.18 230.404 92.951 L 230.404 104.375 Z M 242.744 104.715 C 241.225 104.715 239.871 104.465 238.681 103.967 C 237.491 103.468 236.488 102.794 235.671 101.944 C 234.856 101.096 234.226 100.089 233.819 98.986 C 233.398 97.861 233.185 96.669 233.189 95.467 C 233.189 94.243 233.399 93.07 233.819 91.948 C 234.226 90.845 234.857 89.838 235.672 88.99 C 236.488 88.14 237.491 87.46 238.681 86.95 C 239.871 86.44 241.225 86.185 242.744 86.185 C 244.263 86.185 245.611 86.44 246.79 86.95 C 247.969 87.46 248.966 88.14 249.782 88.99 C 250.598 89.84 251.234 90.846 251.652 91.948 C 252.082 93.071 252.302 94.264 252.298 95.467 C 252.301 96.669 252.088 97.861 251.668 98.986 C 251.26 100.089 250.63 101.096 249.816 101.944 C 249 102.794 247.996 103.468 246.806 103.967 C 245.616 104.466 244.263 104.715 242.744 104.715 Z M 238.765 95.467 C 238.765 96.872 239.139 98 239.887 98.85 C 240.635 99.7 241.587 100.125 242.743 100.125 C 243.283 100.131 243.818 100.015 244.307 99.785 C 244.783 99.558 245.197 99.241 245.547 98.833 C 245.915 98.397 246.197 97.895 246.381 97.354 C 246.589 96.747 246.693 96.109 246.687 95.467 C 246.687 94.062 246.313 92.934 245.565 92.084 C 244.817 91.234 243.876 90.809 242.743 90.809 C 241.652 90.8 240.613 91.273 239.903 92.101 C 239.535 92.538 239.253 93.04 239.071 93.58 C 238.862 94.187 238.758 94.825 238.765 95.467 Z M 266.541 91.183 C 265.226 91.206 264.036 91.421 262.971 91.829 C 261.906 92.237 261.135 92.849 260.659 93.665 L 260.659 104.375 L 255.219 104.375 L 255.219 86.525 L 260.217 86.525 L 260.217 90.129 C 260.829 88.928 261.617 87.987 262.58 87.307 C 263.543 86.627 264.569 86.276 265.657 86.253 L 266.201 86.253 C 266.314 86.253 266.428 86.264 266.541 86.287 L 266.541 91.183 Z M 280.615 103.423 C 279.778 103.771 278.921 104.066 278.048 104.307 C 277.085 104.579 276.116 104.715 275.141 104.715 C 274.461 104.715 273.821 104.63 273.221 104.46 C 272.642 104.302 272.103 104.024 271.639 103.644 C 271.186 103.27 270.829 102.777 270.569 102.165 C 270.307 101.553 270.177 100.816 270.177 99.955 L 270.177 90.639 L 267.899 90.639 L 267.899 86.525 L 270.177 86.525 L 270.177 80.847 L 275.617 80.847 L 275.617 86.525 L 279.255 86.525 L 279.255 90.639 L 275.617 90.639 L 275.617 98.085 C 275.617 98.675 275.764 99.099 276.059 99.36 C 276.354 99.62 276.728 99.751 277.181 99.751 C 277.589 99.751 278.008 99.683 278.439 99.547 C 278.869 99.411 279.244 99.264 279.561 99.105 L 280.615 103.423 Z M 282.892 79.555 L 288.332 79.555 L 288.332 98.017 C 288.332 99.377 288.91 100.057 290.066 100.057 C 290.338 100.057 290.638 100.017 290.967 99.938 C 291.296 99.858 291.597 99.74 291.868 99.581 L 292.582 103.661 C 291.902 103.978 291.12 104.228 290.236 104.409 C 289.352 104.59 288.525 104.681 287.754 104.681 C 286.19 104.681 284.989 104.273 284.15 103.457 C 283.311 102.641 282.892 101.462 282.892 99.921 L 282.892 79.555 Z M 294.348 107.061 C 294.802 107.22 295.227 107.333 295.623 107.401 C 295.976 107.465 296.334 107.499 296.694 107.503 C 297.352 107.503 297.862 107.276 298.224 106.823 C 298.587 106.37 298.916 105.553 299.21 104.375 L 292.41 86.525 L 298.02 86.525 L 302.168 99.717 L 305.738 86.525 L 310.838 86.525 L 304.038 107.265 C 303.589 108.701 302.696 109.957 301.488 110.852 C 300.264 111.77 298.814 112.229 297.136 112.229 C 296.674 112.229 296.213 112.189 295.759 112.11 C 295.277 112.026 294.805 111.895 294.349 111.719 L 294.349 107.061 L 294.348 107.061 Z" style="fill: rgb(255, 255, 255);"/>
</svg>